<svg width="24" height="24" viewBox="0 0 24 24" fill="none" xmlns="http://www.w3.org/2000/svg">
<path d="M14.2473 10.4925L12 9.47626L14.2473 8.46004L15.2727 6.23302L16.2982 8.46004L18.5455 9.47626L16.2982 10.4925L15.2727 12.7195L14.2473 10.4925ZM3.27273 14.8817L4.29818 12.6546L6.54545 11.6384L4.29818 10.6222L3.27273 8.39518L2.24727 10.6222L0 11.6384L2.24727 12.6546L3.27273 14.8817ZM8.18182 9.47626L9.37091 6.87085L12 5.69248L9.37091 4.5141L8.18182 1.90869L6.99273 4.5141L4.36364 5.69248L6.99273 6.87085L8.18182 9.47626ZM3.81818 21.9087L10.3636 15.4114L14.7273 19.7357L24 9.40058L22.4618 7.87626L14.7273 16.4925L10.3636 12.1681L2.18182 20.2871L3.81818 21.9087Z" fill="#1A0A02"/>
</svg>
