<svg width="13" height="12" viewBox="0 0 13 12" fill="none" xmlns="http://www.w3.org/2000/svg">
<path d="M1.91673 12L0.983398 11.0667L7.81673 4.23333C7.61673 3.76667 7.58895 3.23889 7.7334 2.65C7.87784 2.06111 8.19451 1.53333 8.6834 1.06667C9.27229 0.477778 9.92784 0.133333 10.6501 0.0333333C11.3723 -0.0666667 11.9612 0.111111 12.4167 0.566667C12.8723 1.02222 13.0501 1.61111 12.9501 2.33333C12.8501 3.05556 12.5056 3.71111 11.9167 4.3C11.4501 4.78889 10.9223 5.10556 10.3334 5.25C9.74451 5.39444 9.21673 5.36667 8.75007 5.16667L7.91673 6L12.9834 11.0667L12.0501 12L6.9834 6.96667L1.91673 12ZM3.8834 6.3L1.8834 4.3C1.2834 3.7 0.983398 2.98333 0.983398 2.15C0.983398 1.31667 1.2834 0.6 1.8834 0L6.01673 4.16667L3.8834 6.3Z" fill="#5F69C7"/>
</svg>
