<svg width="12" height="14" viewBox="0 0 12 14" fill="none" xmlns="http://www.w3.org/2000/svg">
<path d="M1.33333 13.6667C0.966667 13.6667 0.652778 13.5362 0.391667 13.275C0.130556 13.0139 0 12.7 0 12.3334V3.00004C0 2.63337 0.130556 2.31949 0.391667 2.05837C0.652778 1.79726 0.966667 1.66671 1.33333 1.66671H2V0.333374H3.33333V1.66671H8.66667V0.333374H10V1.66671H10.6667C11.0333 1.66671 11.3472 1.79726 11.6083 2.05837C11.8694 2.31949 12 2.63337 12 3.00004V12.3334C12 12.7 11.8694 13.0139 11.6083 13.275C11.3472 13.5362 11.0333 13.6667 10.6667 13.6667H1.33333ZM1.33333 12.3334H10.6667V5.66671H1.33333V12.3334ZM1.33333 4.33337H10.6667V3.00004H1.33333V4.33337Z" fill="#767676"/>
</svg>
