<svg width="17" height="18" viewBox="0 0 17 18" fill="none" xmlns="http://www.w3.org/2000/svg">
<path d="M8.49984 0.666626C3.89984 0.666626 0.166504 4.39996 0.166504 8.99996C0.166504 13.6 3.89984 17.3333 8.49984 17.3333C13.0998 17.3333 16.8332 13.6 16.8332 8.99996C16.8332 4.39996 13.0998 0.666626 8.49984 0.666626ZM8.49984 15.6666C4.82484 15.6666 1.83317 12.675 1.83317 8.99996C1.83317 5.32496 4.82484 2.33329 8.49984 2.33329C12.1748 2.33329 15.1665 5.32496 15.1665 8.99996C15.1665 12.675 12.1748 15.6666 8.49984 15.6666ZM12.3248 5.31663L6.83317 10.8083L4.67484 8.65829L3.49984 9.83329L6.83317 13.1666L13.4998 6.49996L12.3248 5.31663Z" fill="#FFECE2"/>
</svg>
