<svg width="12" height="13" viewBox="0 0 12 13" fill="none" xmlns="http://www.w3.org/2000/svg">
<path d="M6 9.83333H7.33333V3.16667H4.66667V4.5H6V9.83333ZM1.33333 12.5C0.966667 12.5 0.652778 12.3694 0.391667 12.1083C0.130556 11.8472 0 11.5333 0 11.1667V1.83333C0 1.46667 0.130556 1.15278 0.391667 0.891667C0.652778 0.630556 0.966667 0.5 1.33333 0.5H10.6667C11.0333 0.5 11.3472 0.630556 11.6083 0.891667C11.8694 1.15278 12 1.46667 12 1.83333V11.1667C12 11.5333 11.8694 11.8472 11.6083 12.1083C11.3472 12.3694 11.0333 12.5 10.6667 12.5H1.33333ZM1.33333 11.1667H10.6667V1.83333H1.33333V11.1667Z" fill="#767676"/>
</svg>
