<svg width="16" height="16" viewBox="0 0 16 16" fill="none" xmlns="http://www.w3.org/2000/svg">
<path d="M1.99984 15.3333C1.63317 15.3333 1.31928 15.2027 1.05817 14.9416C0.797059 14.6805 0.666504 14.3666 0.666504 14V1.99996C0.666504 1.63329 0.797059 1.3194 1.05817 1.05829C1.31928 0.797182 1.63317 0.666626 1.99984 0.666626H13.9998C14.3665 0.666626 14.6804 0.797182 14.9415 1.05829C15.2026 1.3194 15.3332 1.63329 15.3332 1.99996V14C15.3332 14.3666 15.2026 14.6805 14.9415 14.9416C14.6804 15.2027 14.3665 15.3333 13.9998 15.3333H1.99984ZM4.6665 14.6666L5.59984 13.7L4.5665 12.6666H12.6665V8.66663H11.3332V11.3333H4.5665L5.59984 10.3L4.6665 9.33329L1.99984 12L4.6665 14.6666ZM3.33317 7.33329H4.6665V4.66663H11.4332L10.3998 5.69996L11.3332 6.66663L13.9998 3.99996L11.3332 1.33329L10.3998 2.29996L11.4332 3.33329H3.33317V7.33329Z" fill="#767676"/>
</svg>
